<?xml version="1.0" standalone="no"?>
<!DOCTYPE svg PUBLIC "-//W3C//DTD SVG 20010904//EN"
 "http://www.w3.org/TR/2001/REC-SVG-20010904/DTD/svg10.dtd">
<svg version="1.0" xmlns="http://www.w3.org/2000/svg"
 width="49.000000pt" height="64.000000pt" viewBox="0 0 49.000000 64.000000"
 preserveAspectRatio="xMidYMid meet">
<metadata>
Created by potrace 1.16, written by Peter Selinger 2001-2019
</metadata>
<g transform="translate(0.000000,64.000000) scale(0.100000,-0.100000)"
fill="#000000" stroke="none">
<path d="M172 610 c-12 -12 -22 -30 -22 -40 0 -18 -7 -20 -58 -20 -32 0 -63
-5 -70 -12 -18 -18 -16 -242 3 -306 18 -60 102 -158 174 -203 l45 -27 37 18
c60 31 146 117 174 174 24 50 25 59 23 202 l-3 149 -70 3 -71 3 4 33 c5 42
-15 57 -38 29 -16 -20 -52 -43 -66 -43 -5 0 -3 5 4 12 7 7 12 20 12 30 0 25
-50 24 -78 -2z m40 -12 c-7 -7 -12 -20 -12 -30 0 -14 8 -18 38 -18 32 0 45 -7
81 -44 55 -56 51 -76 -14 -76 -57 0 -81 12 -89 45 -4 14 -11 23 -16 20 -17
-10 -11 -35 14 -60 22 -22 24 -30 18 -67 l-8 -43 -92 -3 -92 -3 0 50 c0 42 4
52 23 62 12 6 41 29 64 51 22 22 46 37 52 34 14 -9 14 -3 -1 30 -11 23 -10 28
11 45 26 21 42 26 23 7z m248 -178 l0 -100 -105 0 -105 0 0 33 c0 44 15 57 66
57 72 0 98 50 47 89 l-28 20 63 1 62 0 0 -100z m-10 -156 l0 -24 -200 0 c-115
0 -200 4 -200 9 0 5 -3 16 -6 25 -5 13 9 16 93 18 54 2 146 2 206 0 106 -3
107 -4 107 -28z m-36 -89 c-16 -25 -18 -25 -162 -25 -121 0 -148 3 -164 17
-10 9 -18 20 -18 25 0 4 81 8 180 8 l180 0 -16 -25z"/>
</g>
</svg>
